<mxfile host="app.diagrams.net" agent="Mozilla/5.0 (Windows NT 10.0; Win64; x64; rv:130.0) Gecko/20100101 Firefox/130.0" version="24.7.16">
  <diagram name="Página-1" id="UpH3eAduXY9HlWt2XVrh">
    <mxGraphModel dx="1593" dy="816" grid="1" gridSize="10" guides="1" tooltips="1" connect="1" arrows="1" fold="1" page="1" pageScale="1" pageWidth="827" pageHeight="1169" math="0" shadow="0">
      <root>
        <mxCell id="0" />
        <mxCell id="1" parent="0" />
        <mxCell id="BQ6H0-CiCyHwH5uAGE3x-1" value="Cliente" style="shape=umlActor;verticalLabelPosition=bottom;verticalAlign=top;html=1;outlineConnect=0;" parent="1" vertex="1">
          <mxGeometry x="100" y="260" width="30" height="60" as="geometry" />
        </mxCell>
        <mxCell id="BQ6H0-CiCyHwH5uAGE3x-2" value="Sistema" style="shape=umlBoundary;whiteSpace=wrap;html=1;" parent="1" vertex="1">
          <mxGeometry x="414" y="250" width="100" height="80" as="geometry" />
        </mxCell>
        <mxCell id="BQ6H0-CiCyHwH5uAGE3x-3" value="Bolsa de Valores" style="ellipse;shape=umlControl;whiteSpace=wrap;html=1;" parent="1" vertex="1">
          <mxGeometry x="1910" y="255" width="70" height="80" as="geometry" />
        </mxCell>
        <mxCell id="z8NGQnsHM1jvJejYs30Q-2" style="edgeStyle=orthogonalEdgeStyle;rounded=0;orthogonalLoop=1;jettySize=auto;html=1;exitX=1;exitY=0;exitDx=0;exitDy=0;entryX=0;entryY=0;entryDx=0;entryDy=0;" parent="1" source="BQ6H0-CiCyHwH5uAGE3x-5" target="BQ6H0-CiCyHwH5uAGE3x-6" edge="1">
          <mxGeometry relative="1" as="geometry">
            <Array as="points">
              <mxPoint x="290" y="360" />
              <mxPoint x="290" y="360" />
            </Array>
          </mxGeometry>
        </mxCell>
        <mxCell id="BQ6H0-CiCyHwH5uAGE3x-5" value="" style="rounded=0;whiteSpace=wrap;html=1;" parent="1" vertex="1">
          <mxGeometry x="102.5" y="360" width="25" height="1000" as="geometry" />
        </mxCell>
        <mxCell id="kjofZXwEj-tuFAAT003z-1" style="edgeStyle=orthogonalEdgeStyle;rounded=0;orthogonalLoop=1;jettySize=auto;html=1;exitX=1;exitY=0.5;exitDx=0;exitDy=0;entryX=0.928;entryY=0.522;entryDx=0;entryDy=0;entryPerimeter=0;" edge="1" parent="1" target="BQ6H0-CiCyHwH5uAGE3x-6">
          <mxGeometry relative="1" as="geometry">
            <mxPoint x="477.2068965517242" y="900" as="targetPoint" />
            <mxPoint x="477" y="850" as="sourcePoint" />
            <Array as="points">
              <mxPoint x="560" y="850" />
              <mxPoint x="560" y="880" />
              <mxPoint x="477" y="880" />
              <mxPoint x="477" y="882" />
            </Array>
          </mxGeometry>
        </mxCell>
        <mxCell id="BQ6H0-CiCyHwH5uAGE3x-6" value="" style="rounded=0;whiteSpace=wrap;html=1;" parent="1" vertex="1">
          <mxGeometry x="451" y="360" width="26" height="1000" as="geometry" />
        </mxCell>
        <mxCell id="BQ6H0-CiCyHwH5uAGE3x-7" value="" style="rounded=0;whiteSpace=wrap;html=1;" parent="1" vertex="1">
          <mxGeometry x="1932.5" y="365" width="25" height="760" as="geometry" />
        </mxCell>
        <mxCell id="BQ6H0-CiCyHwH5uAGE3x-10" value="" style="endArrow=classic;html=1;rounded=0;entryX=-0.005;entryY=0.299;entryDx=0;entryDy=0;entryPerimeter=0;" parent="1" target="z8NGQnsHM1jvJejYs30Q-12" edge="1">
          <mxGeometry width="50" height="50" relative="1" as="geometry">
            <mxPoint x="481" y="650" as="sourcePoint" />
            <mxPoint x="801" y="650" as="targetPoint" />
          </mxGeometry>
        </mxCell>
        <mxCell id="BQ6H0-CiCyHwH5uAGE3x-11" value="2: cadastrar(ClienteAcesso) :string" style="text;html=1;align=center;verticalAlign=middle;resizable=0;points=[];autosize=1;strokeColor=#6c8ebf;fillColor=#dae8fc;fontSize=8;textShadow=1;" parent="1" vertex="1">
          <mxGeometry x="571" y="620" width="140" height="20" as="geometry" />
        </mxCell>
        <mxCell id="BQ6H0-CiCyHwH5uAGE3x-12" value="" style="endArrow=none;html=1;rounded=0;dashed=1;startArrow=open;startFill=0;endFill=0;entryX=-0.006;entryY=0.899;entryDx=0;entryDy=0;entryPerimeter=0;" parent="1" target="z8NGQnsHM1jvJejYs30Q-12" edge="1">
          <mxGeometry width="50" height="50" relative="1" as="geometry">
            <mxPoint x="481" y="710" as="sourcePoint" />
            <mxPoint x="801" y="710" as="targetPoint" />
          </mxGeometry>
        </mxCell>
        <mxCell id="BQ6H0-CiCyHwH5uAGE3x-13" value="2.1: permitirAcesso(ClienteAcesso) :string" style="text;html=1;align=center;verticalAlign=middle;resizable=0;points=[];autosize=1;strokeColor=#6c8ebf;fillColor=#dae8fc;fontSize=8;textShadow=1;" parent="1" vertex="1">
          <mxGeometry x="556" y="680" width="170" height="20" as="geometry" />
        </mxCell>
        <mxCell id="BQ6H0-CiCyHwH5uAGE3x-14" value="" style="endArrow=classic;html=1;rounded=0;" parent="1" edge="1">
          <mxGeometry width="50" height="50" relative="1" as="geometry">
            <mxPoint x="130" y="860" as="sourcePoint" />
            <mxPoint x="451" y="860" as="targetPoint" />
          </mxGeometry>
        </mxCell>
        <mxCell id="BQ6H0-CiCyHwH5uAGE3x-15" value="3. btnLogar_Click(System.EventArgs, Object)" style="text;html=1;align=center;verticalAlign=middle;resizable=0;points=[];autosize=1;strokeColor=#6c8ebf;fillColor=#dae8fc;fontSize=8;textShadow=1;" parent="1" vertex="1">
          <mxGeometry x="201" y="830" width="180" height="20" as="geometry" />
        </mxCell>
        <mxCell id="BQ6H0-CiCyHwH5uAGE3x-20" value="critical Verificar se Cliente Existe" style="shape=umlFrame;whiteSpace=wrap;html=1;pointerEvents=0;width=186;height=30;" parent="1" vertex="1">
          <mxGeometry x="250" y="480" width="710" height="310" as="geometry" />
        </mxCell>
        <mxCell id="BQ6H0-CiCyHwH5uAGE3x-21" value="[if (permitirAcesso)]" style="text;html=1;align=center;verticalAlign=middle;whiteSpace=wrap;rounded=0;" parent="1" vertex="1">
          <mxGeometry x="260" y="520" width="160" height="30" as="geometry" />
        </mxCell>
        <mxCell id="BQ6H0-CiCyHwH5uAGE3x-22" value="" style="rounded=0;whiteSpace=wrap;html=1;" parent="1" vertex="1">
          <mxGeometry x="457.5" y="525" width="20" height="20" as="geometry" />
        </mxCell>
        <mxCell id="BQ6H0-CiCyHwH5uAGE3x-25" value="" style="endArrow=classic;html=1;rounded=0;exitX=1.06;exitY=0.186;exitDx=0;exitDy=0;exitPerimeter=0;entryX=1;entryY=0.5;entryDx=0;entryDy=0;" parent="1" target="BQ6H0-CiCyHwH5uAGE3x-22" edge="1">
          <mxGeometry width="50" height="50" relative="1" as="geometry">
            <mxPoint x="479.00000000000045" y="511.3600000000001" as="sourcePoint" />
            <mxPoint x="620" y="500" as="targetPoint" />
            <Array as="points">
              <mxPoint x="530" y="511" />
              <mxPoint x="530" y="535" />
            </Array>
          </mxGeometry>
        </mxCell>
        <mxCell id="BQ6H0-CiCyHwH5uAGE3x-26" value="throw new Exception (&quot;Cliente já existe no sistema!&quot;)" style="text;html=1;align=left;verticalAlign=middle;whiteSpace=wrap;rounded=0;fontSize=9;" parent="1" vertex="1">
          <mxGeometry x="536" y="510" width="230" height="20" as="geometry" />
        </mxCell>
        <mxCell id="BQ6H0-CiCyHwH5uAGE3x-28" value="" style="endArrow=none;dashed=1;html=1;rounded=0;exitX=0.001;exitY=0.334;exitDx=0;exitDy=0;exitPerimeter=0;entryX=0.999;entryY=0.332;entryDx=0;entryDy=0;entryPerimeter=0;" parent="1" source="BQ6H0-CiCyHwH5uAGE3x-20" target="BQ6H0-CiCyHwH5uAGE3x-20" edge="1">
          <mxGeometry width="50" height="50" relative="1" as="geometry">
            <mxPoint x="560" y="700" as="sourcePoint" />
            <mxPoint x="610" y="650" as="targetPoint" />
          </mxGeometry>
        </mxCell>
        <mxCell id="BQ6H0-CiCyHwH5uAGE3x-29" value="[else]" style="text;html=1;align=center;verticalAlign=middle;whiteSpace=wrap;rounded=0;" parent="1" vertex="1">
          <mxGeometry x="260" y="600" width="160" height="30" as="geometry" />
        </mxCell>
        <mxCell id="BQ6H0-CiCyHwH5uAGE3x-30" value="" style="rounded=0;whiteSpace=wrap;html=1;" parent="1" vertex="1">
          <mxGeometry x="457.5" y="760" width="20" height="20" as="geometry" />
        </mxCell>
        <mxCell id="BQ6H0-CiCyHwH5uAGE3x-32" value="" style="endArrow=classic;html=1;rounded=0;exitX=1;exitY=0.5;exitDx=0;exitDy=0;entryX=1;entryY=0.5;entryDx=0;entryDy=0;" parent="1" target="BQ6H0-CiCyHwH5uAGE3x-30" edge="1">
          <mxGeometry width="50" height="50" relative="1" as="geometry">
            <mxPoint x="477.5" y="750" as="sourcePoint" />
            <mxPoint x="484" y="774" as="targetPoint" />
            <Array as="points">
              <mxPoint x="530" y="750" />
              <mxPoint x="530" y="760" />
              <mxPoint x="530" y="770" />
            </Array>
          </mxGeometry>
        </mxCell>
        <mxCell id="BQ6H0-CiCyHwH5uAGE3x-33" value="Response.Write(&quot;Cliente cadastrado!&quot;)" style="text;html=1;align=left;verticalAlign=middle;whiteSpace=wrap;rounded=0;fontSize=9;" parent="1" vertex="1">
          <mxGeometry x="541" y="750" width="230" height="20" as="geometry" />
        </mxCell>
        <mxCell id="BQ6H0-CiCyHwH5uAGE3x-36" value="obj (quem interage, deixar ob1 se não souber quem é) :obj2 (quem é interagido, deixar ob2 se não souber quem é)" style="rounded=0;whiteSpace=wrap;html=1;" parent="1" vertex="1">
          <mxGeometry x="530" y="160" width="640" height="60" as="geometry" />
        </mxCell>
        <mxCell id="z8NGQnsHM1jvJejYs30Q-15" style="edgeStyle=orthogonalEdgeStyle;rounded=0;orthogonalLoop=1;jettySize=auto;html=1;exitX=0.5;exitY=1;exitDx=0;exitDy=0;entryX=0.5;entryY=0;entryDx=0;entryDy=0;endArrow=none;endFill=0;dashed=1;" parent="1" source="BQ6H0-CiCyHwH5uAGE3x-37" target="z8NGQnsHM1jvJejYs30Q-4" edge="1">
          <mxGeometry relative="1" as="geometry" />
        </mxCell>
        <mxCell id="BQ6H0-CiCyHwH5uAGE3x-37" value="&lt;div&gt;&amp;lt;&amp;lt;dados&amp;gt;&amp;gt;&lt;/div&gt;cadastrar :Cadastrar" style="rounded=0;whiteSpace=wrap;html=1;" parent="1" vertex="1">
          <mxGeometry x="770" y="270" width="120" height="60" as="geometry" />
        </mxCell>
        <mxCell id="z8NGQnsHM1jvJejYs30Q-3" value="btnCadastrar_Click(System.EventArgs, Object)" style="text;html=1;align=center;verticalAlign=middle;resizable=0;points=[];autosize=1;strokeColor=#6c8ebf;fillColor=#dae8fc;fontSize=8;textShadow=1;" parent="1" vertex="1">
          <mxGeometry x="181" y="330" width="180" height="20" as="geometry" />
        </mxCell>
        <mxCell id="z8NGQnsHM1jvJejYs30Q-16" style="edgeStyle=orthogonalEdgeStyle;rounded=0;orthogonalLoop=1;jettySize=auto;html=1;exitX=0.5;exitY=1;exitDx=0;exitDy=0;entryX=0.5;entryY=0;entryDx=0;entryDy=0;endArrow=none;endFill=0;dashed=1;" parent="1" source="z8NGQnsHM1jvJejYs30Q-4" target="z8NGQnsHM1jvJejYs30Q-12" edge="1">
          <mxGeometry relative="1" as="geometry" />
        </mxCell>
        <mxCell id="z8NGQnsHM1jvJejYs30Q-4" value="" style="rounded=0;whiteSpace=wrap;html=1;" parent="1" vertex="1">
          <mxGeometry x="815.5" y="420" width="29" height="60" as="geometry" />
        </mxCell>
        <mxCell id="z8NGQnsHM1jvJejYs30Q-5" value="" style="rounded=0;whiteSpace=wrap;html=1;" parent="1" vertex="1">
          <mxGeometry x="457.5" y="384" width="20" height="20" as="geometry" />
        </mxCell>
        <mxCell id="z8NGQnsHM1jvJejYs30Q-6" value="" style="endArrow=classic;html=1;rounded=0;exitX=1.06;exitY=0.186;exitDx=0;exitDy=0;exitPerimeter=0;entryX=1;entryY=0.5;entryDx=0;entryDy=0;" parent="1" target="z8NGQnsHM1jvJejYs30Q-5" edge="1">
          <mxGeometry width="50" height="50" relative="1" as="geometry">
            <mxPoint x="479.00000000000045" y="370.3600000000001" as="sourcePoint" />
            <mxPoint x="620" y="359" as="targetPoint" />
            <Array as="points">
              <mxPoint x="530" y="370" />
              <mxPoint x="530" y="394" />
            </Array>
          </mxGeometry>
        </mxCell>
        <mxCell id="z8NGQnsHM1jvJejYs30Q-9" value="Verificar(ClienteCadastro) :bool" style="text;html=1;align=left;verticalAlign=middle;whiteSpace=wrap;rounded=0;fontSize=9;" parent="1" vertex="1">
          <mxGeometry x="536" y="400" width="230" height="20" as="geometry" />
        </mxCell>
        <mxCell id="z8NGQnsHM1jvJejYs30Q-11" value="permitirAcesso=:bool" style="text;html=1;align=left;verticalAlign=middle;whiteSpace=wrap;rounded=0;fontSize=9;" parent="1" vertex="1">
          <mxGeometry x="536" y="430" width="230" height="20" as="geometry" />
        </mxCell>
        <mxCell id="z8NGQnsHM1jvJejYs30Q-17" style="edgeStyle=orthogonalEdgeStyle;rounded=0;orthogonalLoop=1;jettySize=auto;html=1;exitX=0.5;exitY=1;exitDx=0;exitDy=0;endArrow=none;endFill=0;dashed=1;" parent="1" source="kjofZXwEj-tuFAAT003z-5" edge="1">
          <mxGeometry relative="1" as="geometry">
            <mxPoint x="830" y="1360" as="targetPoint" />
          </mxGeometry>
        </mxCell>
        <mxCell id="z8NGQnsHM1jvJejYs30Q-12" value="" style="rounded=0;whiteSpace=wrap;html=1;" parent="1" vertex="1">
          <mxGeometry x="815.5" y="620" width="29" height="100" as="geometry" />
        </mxCell>
        <mxCell id="z8NGQnsHM1jvJejYs30Q-13" value="&lt;div&gt;2: gerar_acesso(): ClienteAcesso&lt;br&gt;&lt;/div&gt;" style="text;html=1;align=center;verticalAlign=middle;resizable=0;points=[];autosize=1;strokeColor=#6c8ebf;fillColor=#dae8fc;fontSize=8;textShadow=1;" parent="1" vertex="1">
          <mxGeometry x="536" y="370" width="140" height="20" as="geometry" />
        </mxCell>
        <mxCell id="kjofZXwEj-tuFAAT003z-13" style="edgeStyle=orthogonalEdgeStyle;rounded=0;orthogonalLoop=1;jettySize=auto;html=1;exitX=0.5;exitY=1;exitDx=0;exitDy=0;dashed=1;endArrow=none;endFill=0;" edge="1" parent="1" source="z8NGQnsHM1jvJejYs30Q-14">
          <mxGeometry relative="1" as="geometry">
            <mxPoint x="1180" y="1420" as="targetPoint" />
            <Array as="points">
              <mxPoint x="1181" y="873" />
              <mxPoint x="1180" y="873" />
              <mxPoint x="1180" y="1410" />
            </Array>
          </mxGeometry>
        </mxCell>
        <mxCell id="z8NGQnsHM1jvJejYs30Q-14" value="&lt;div&gt;&amp;lt;&amp;lt;dados&amp;gt;&amp;gt;&lt;/div&gt;logar :Logar" style="rounded=0;whiteSpace=wrap;html=1;" parent="1" vertex="1">
          <mxGeometry x="1121" y="275" width="120" height="60" as="geometry" />
        </mxCell>
        <mxCell id="z8NGQnsHM1jvJejYs30Q-18" value="critical Verificar se Login Existe" style="shape=umlFrame;whiteSpace=wrap;html=1;pointerEvents=0;width=186;height=30;" parent="1" vertex="1">
          <mxGeometry x="250" y="1030" width="1160" height="310" as="geometry" />
        </mxCell>
        <mxCell id="z8NGQnsHM1jvJejYs30Q-19" value="[if (permitirAcesso)]" style="text;html=1;align=center;verticalAlign=middle;whiteSpace=wrap;rounded=0;" parent="1" vertex="1">
          <mxGeometry x="260" y="1050" width="160" height="30" as="geometry" />
        </mxCell>
        <mxCell id="z8NGQnsHM1jvJejYs30Q-20" value="[else]" style="text;html=1;align=center;verticalAlign=middle;whiteSpace=wrap;rounded=0;" parent="1" vertex="1">
          <mxGeometry x="260" y="1270" width="160" height="30" as="geometry" />
        </mxCell>
        <mxCell id="z8NGQnsHM1jvJejYs30Q-21" value="" style="endArrow=none;dashed=1;html=1;rounded=0;exitX=0.001;exitY=0.334;exitDx=0;exitDy=0;exitPerimeter=0;entryX=0.999;entryY=0.332;entryDx=0;entryDy=0;entryPerimeter=0;" parent="1" edge="1">
          <mxGeometry width="50" height="50" relative="1" as="geometry">
            <mxPoint x="250.00000000000009" y="1250.62" as="sourcePoint" />
            <mxPoint x="1407.68" y="1249.9999999999998" as="targetPoint" />
          </mxGeometry>
        </mxCell>
        <mxCell id="z8NGQnsHM1jvJejYs30Q-22" value="" style="rounded=0;whiteSpace=wrap;html=1;" parent="1" vertex="1">
          <mxGeometry x="457.5" y="1055" width="20" height="20" as="geometry" />
        </mxCell>
        <mxCell id="z8NGQnsHM1jvJejYs30Q-23" value="" style="endArrow=classic;html=1;rounded=0;exitX=1.06;exitY=0.186;exitDx=0;exitDy=0;exitPerimeter=0;entryX=1;entryY=0.5;entryDx=0;entryDy=0;" parent="1" target="z8NGQnsHM1jvJejYs30Q-22" edge="1">
          <mxGeometry width="50" height="50" relative="1" as="geometry">
            <mxPoint x="479.00000000000045" y="1041.3600000000001" as="sourcePoint" />
            <mxPoint x="620" y="1030" as="targetPoint" />
            <Array as="points">
              <mxPoint x="530" y="1041" />
              <mxPoint x="530" y="1065" />
            </Array>
          </mxGeometry>
        </mxCell>
        <mxCell id="z8NGQnsHM1jvJejYs30Q-24" value="throw new Exception (&quot;Bem-vindo(a)!&quot;)" style="text;html=1;align=left;verticalAlign=middle;whiteSpace=wrap;rounded=0;fontSize=9;" parent="1" vertex="1">
          <mxGeometry x="536" y="1040" width="230" height="20" as="geometry" />
        </mxCell>
        <mxCell id="z8NGQnsHM1jvJejYs30Q-25" value="2: logar(ClienteAcesso) :string" style="text;html=1;align=center;verticalAlign=middle;resizable=0;points=[];autosize=1;strokeColor=#6c8ebf;fillColor=#dae8fc;fontSize=8;textShadow=1;" parent="1" vertex="1">
          <mxGeometry x="576.5" y="1100" width="130" height="20" as="geometry" />
        </mxCell>
        <mxCell id="z8NGQnsHM1jvJejYs30Q-29" value="" style="endArrow=classic;html=1;rounded=0;exitX=1;exitY=0.5;exitDx=0;exitDy=0;entryX=1;entryY=0.5;entryDx=0;entryDy=0;" parent="1" target="z8NGQnsHM1jvJejYs30Q-30" edge="1">
          <mxGeometry width="50" height="50" relative="1" as="geometry">
            <mxPoint x="477.5" y="1280" as="sourcePoint" />
            <mxPoint x="484" y="1304" as="targetPoint" />
            <Array as="points">
              <mxPoint x="530" y="1280" />
              <mxPoint x="530" y="1290" />
              <mxPoint x="530" y="1300" />
            </Array>
          </mxGeometry>
        </mxCell>
        <mxCell id="z8NGQnsHM1jvJejYs30Q-30" value="" style="rounded=0;whiteSpace=wrap;html=1;" parent="1" vertex="1">
          <mxGeometry x="457.5" y="1290" width="20" height="20" as="geometry" />
        </mxCell>
        <mxCell id="z8NGQnsHM1jvJejYs30Q-31" value="throw new Exception (&quot;Usuário ou senha não existem ou incorretos!&quot;)" style="text;html=1;align=left;verticalAlign=middle;whiteSpace=wrap;rounded=0;fontSize=9;" parent="1" vertex="1">
          <mxGeometry x="541" y="1280" width="230" height="20" as="geometry" />
        </mxCell>
        <mxCell id="z8NGQnsHM1jvJejYs30Q-32" value="" style="endArrow=classic;html=1;rounded=0;entryX=0;entryY=0;entryDx=0;entryDy=0;" parent="1" target="z8NGQnsHM1jvJejYs30Q-4" edge="1">
          <mxGeometry width="50" height="50" relative="1" as="geometry">
            <mxPoint x="480" y="420" as="sourcePoint" />
            <mxPoint x="630" y="480" as="targetPoint" />
          </mxGeometry>
        </mxCell>
        <mxCell id="z8NGQnsHM1jvJejYs30Q-33" value="" style="endArrow=open;html=1;rounded=0;exitX=0;exitY=0.5;exitDx=0;exitDy=0;dashed=1;endFill=0;" parent="1" source="z8NGQnsHM1jvJejYs30Q-4" edge="1">
          <mxGeometry width="50" height="50" relative="1" as="geometry">
            <mxPoint x="580" y="530" as="sourcePoint" />
            <mxPoint x="480" y="450" as="targetPoint" />
          </mxGeometry>
        </mxCell>
        <mxCell id="z8NGQnsHM1jvJejYs30Q-34" value="!Criar Objeto, função de montar objeto e criar uma validação de segurança!" style="text;html=1;align=center;verticalAlign=middle;whiteSpace=wrap;rounded=0;" parent="1" vertex="1">
          <mxGeometry x="576.75" y="290" width="148.5" height="30" as="geometry" />
        </mxCell>
        <mxCell id="z8NGQnsHM1jvJejYs30Q-35" style="edgeStyle=orthogonalEdgeStyle;rounded=0;orthogonalLoop=1;jettySize=auto;html=1;entryX=0.443;entryY=0.029;entryDx=0;entryDy=0;entryPerimeter=0;" parent="1" target="z8NGQnsHM1jvJejYs30Q-13" edge="1">
          <mxGeometry relative="1" as="geometry">
            <mxPoint x="651" y="330" as="sourcePoint" />
          </mxGeometry>
        </mxCell>
        <mxCell id="kjofZXwEj-tuFAAT003z-2" value="" style="rounded=0;whiteSpace=wrap;html=1;" vertex="1" parent="1">
          <mxGeometry x="457" y="870" width="20" height="20" as="geometry" />
        </mxCell>
        <mxCell id="kjofZXwEj-tuFAAT003z-4" value="&lt;div&gt;2: gerar_acesso(): ClienteAcesso&lt;br&gt;&lt;/div&gt;" style="text;html=1;align=center;verticalAlign=middle;resizable=0;points=[];autosize=1;strokeColor=#6c8ebf;fillColor=#dae8fc;fontSize=8;textShadow=1;" vertex="1" parent="1">
          <mxGeometry x="490" y="820" width="140" height="20" as="geometry" />
        </mxCell>
        <mxCell id="kjofZXwEj-tuFAAT003z-6" value="" style="edgeStyle=orthogonalEdgeStyle;rounded=0;orthogonalLoop=1;jettySize=auto;html=1;exitX=0.5;exitY=1;exitDx=0;exitDy=0;endArrow=none;endFill=0;dashed=1;" edge="1" parent="1" source="z8NGQnsHM1jvJejYs30Q-12" target="kjofZXwEj-tuFAAT003z-5">
          <mxGeometry relative="1" as="geometry">
            <mxPoint x="830" y="1360" as="targetPoint" />
            <mxPoint x="830" y="720" as="sourcePoint" />
          </mxGeometry>
        </mxCell>
        <mxCell id="kjofZXwEj-tuFAAT003z-5" value="" style="rounded=0;whiteSpace=wrap;html=1;" vertex="1" parent="1">
          <mxGeometry x="815.5" y="840" width="29" height="60" as="geometry" />
        </mxCell>
        <mxCell id="kjofZXwEj-tuFAAT003z-8" style="edgeStyle=orthogonalEdgeStyle;rounded=0;orthogonalLoop=1;jettySize=auto;html=1;exitX=0;exitY=0.75;exitDx=0;exitDy=0;entryX=1.085;entryY=0.56;entryDx=0;entryDy=0;entryPerimeter=0;endArrow=none;endFill=0;startArrow=classic;startFill=1;" edge="1" parent="1" source="kjofZXwEj-tuFAAT003z-5" target="BQ6H0-CiCyHwH5uAGE3x-6">
          <mxGeometry relative="1" as="geometry" />
        </mxCell>
        <mxCell id="kjofZXwEj-tuFAAT003z-9" value="Verificar(ClienteAcesso) :bool" style="text;whiteSpace=wrap;html=1;" vertex="1" parent="1">
          <mxGeometry x="590" y="860" width="200" height="40" as="geometry" />
        </mxCell>
        <mxCell id="kjofZXwEj-tuFAAT003z-11" style="edgeStyle=orthogonalEdgeStyle;rounded=0;orthogonalLoop=1;jettySize=auto;html=1;exitX=0.25;exitY=1;exitDx=0;exitDy=0;entryX=0.962;entryY=0.606;entryDx=0;entryDy=0;entryPerimeter=0;" edge="1" parent="1" source="kjofZXwEj-tuFAAT003z-5" target="BQ6H0-CiCyHwH5uAGE3x-6">
          <mxGeometry relative="1" as="geometry">
            <Array as="points">
              <mxPoint x="823" y="966" />
            </Array>
          </mxGeometry>
        </mxCell>
        <mxCell id="kjofZXwEj-tuFAAT003z-12" value="permitirAcesso=:bool" style="text;html=1;align=center;verticalAlign=middle;resizable=0;points=[];autosize=1;strokeColor=none;fillColor=none;" vertex="1" parent="1">
          <mxGeometry x="570" y="938" width="140" height="30" as="geometry" />
        </mxCell>
        <mxCell id="kjofZXwEj-tuFAAT003z-16" style="edgeStyle=orthogonalEdgeStyle;rounded=0;orthogonalLoop=1;jettySize=auto;html=1;" edge="1" parent="1" source="kjofZXwEj-tuFAAT003z-14">
          <mxGeometry relative="1" as="geometry">
            <mxPoint x="1180" y="1139.0000000000002" as="targetPoint" />
          </mxGeometry>
        </mxCell>
        <mxCell id="kjofZXwEj-tuFAAT003z-14" value="" style="rounded=0;whiteSpace=wrap;html=1;strokeColor=none;" vertex="1" parent="1">
          <mxGeometry x="454.5" y="1109" width="15.5" height="60" as="geometry" />
        </mxCell>
      </root>
    </mxGraphModel>
  </diagram>
</mxfile>
